<?xml version="1.0" standalone="no"?>
<!DOCTYPE svg PUBLIC "-//W3C//DTD SVG 20010904//EN"
 "http://www.w3.org/TR/2001/REC-SVG-20010904/DTD/svg10.dtd">
<svg version="1.0" xmlns="http://www.w3.org/2000/svg"
 width="460.000000pt" height="530.000000pt" viewBox="0 0 460.000000 530.000000"
 preserveAspectRatio="xMidYMid meet">

<g transform="translate(0.000000,530.000000) scale(0.100000,-0.100000)"
fill="#000000" stroke="none">
<path d="M1952 4809 c-138 -23 -313 -122 -441 -250 -156 -155 -284 -360 -395
-631 -9 -23 -20 -36 -28 -33 -23 8 -595 165 -602 165 -15 0 -5 -49 12 -54 9
-3 143 -40 297 -82 154 -42 281 -78 283 -79 2 -2 -10 -45 -27 -97 -115 -360
-180 -826 -170 -1221 3 -81 1 -147 -4 -147 -13 0 -195 -69 -269 -103 -48 -21
-68 -35 -68 -48 0 -10 4 -20 8 -23 5 -3 51 13 103 36 75 32 223 88 235 88 1 0
5 -30 9 -67 78 -828 365 -1470 779 -1747 383 -255 824 -114 1143 364 228 342
389 863 428 1388 6 79 10 92 24 88 9 -3 43 -12 76 -20 33 -8 87 -24 119 -36
33 -11 61 -20 63 -20 1 0 3 11 3 25 0 30 -3 32 -160 75 l-115 32 3 137 c10
384 -61 882 -171 1207 l-25 71 347 93 c190 51 356 97 369 101 24 9 30 37 9 45
-7 2 -171 -38 -364 -91 -194 -52 -358 -95 -366 -95 -8 0 -22 21 -32 48 -10 26
-45 102 -77 169 -131 271 -292 471 -478 593 -168 110 -338 149 -518 119z m312
-73 c189 -64 358 -207 508 -431 61 -91 156 -272 201 -383 l25 -62 -31 -8 c-18
-5 -155 -42 -306 -82 -165 -45 -275 -79 -278 -88 -16 -40 18 -35 322 48 168
45 307 81 309 79 7 -7 64 -194 85 -275 70 -273 111 -625 111 -947 0 -145 -1
-157 -18 -157 -16 0 -20 14 -30 98 -16 134 -39 207 -77 248 -41 43 -69 43
-109 1 -35 -38 -61 -109 -75 -211 -5 -37 -12 -71 -15 -73 -3 -3 -39 0 -80 6
-271 44 -766 64 -1053 42 -147 -11 -498 -57 -515 -67 -6 -4 -10 13 -24 106
-17 112 -74 210 -124 210 -35 0 -84 -60 -104 -126 -9 -33 -22 -105 -28 -161
-7 -56 -16 -100 -20 -97 -11 7 -10 290 2 464 22 317 77 611 161 868 25 74 34
92 47 88 10 -3 176 -48 370 -102 350 -96 385 -102 369 -62 -3 9 -145 53 -363
112 -198 55 -362 101 -366 103 -19 10 123 298 213 433 122 183 311 351 461
411 142 56 293 61 432 15z m798 -2012 c23 -39 44 -124 53 -210 l7 -72 -87 18
c-47 10 -88 20 -91 22 -6 6 12 131 26 178 14 49 48 102 63 97 6 -2 20 -17 29
-33z m-1936 -28 c21 -37 37 -99 49 -187 l6 -46 -87 -22 c-48 -12 -89 -20 -92
-17 -8 9 17 181 33 227 20 57 43 91 58 86 7 -2 21 -20 33 -41z m1484 -221
c156 -18 330 -47 480 -78 l105 -22 -3 -95 c-7 -276 -101 -698 -221 -997 -109
-272 -287 -534 -456 -670 -312 -251 -666 -226 -964 69 -325 321 -547 905 -607
1589 -6 70 -4 78 12 83 161 50 473 107 706 131 190 19 756 13 948 -10z"/>
<path d="M1465 3538 c-32 -25 -64 -91 -65 -132 0 -80 60 -166 116 -166 64 0
112 58 121 143 6 63 -13 114 -57 151 -38 32 -78 33 -115 4z m109 -24 c9 -8 16
-24 16 -34 0 -22 -25 -50 -45 -50 -20 0 -45 28 -45 50 0 22 25 50 45 50 7 0
21 -7 29 -16z"/>
<path d="M2600 3462 c-27 -28 -50 -85 -50 -127 0 -42 23 -99 50 -127 99 -98
219 84 146 220 -14 25 -15 25 -16 5 0 -24 -25 -53 -45 -53 -7 0 -21 7 -30 17
-19 18 -14 71 8 85 8 5 4 8 -11 8 -13 0 -36 -13 -52 -28z"/>
</g>
</svg>
